<?xml version="1.0" encoding="utf-8"?>
<!-- Generator: Adobe Illustrator 23.0.0, SVG Export Plug-In . SVG Version: 6.00 Build 0)  -->
<svg version="1.1" xmlns="http://www.w3.org/2000/svg" xmlns:xlink="http://www.w3.org/1999/xlink" x="0px" y="0px"
	 viewBox="0 0 128 128" enable-background="new 0 0 128 128" xml:space="preserve">
<g id="Layer_1">
</g>
<g id="Layer_2">
</g>
<g id="Network">
</g>
<g id="LogoDark">
</g>
<g id="LogoIcon">
</g>
<g id="LogoIconLight">
	<g>
		<path fill="#E6E6E6" d="M99.92,29.94c-7.75,0.44-23.14,2.04-32.65,7.86c-0.66,0.4-1.03,1.12-1.03,1.86V91.1
			c0,1.63,1.79,2.66,3.29,1.91c9.78-4.92,23.92-6.27,30.92-6.63c2.39-0.13,4.24-2.04,4.24-4.33V34.28
			C104.7,31.78,102.53,29.8,99.92,29.94z M60.69,37.8c-9.5-5.82-24.9-7.42-32.65-7.86c-2.6-0.15-4.78,1.84-4.78,4.34v47.76
			c0,2.3,1.86,4.21,4.24,4.33c7,0.37,21.15,1.71,30.93,6.64c1.5,0.76,3.28-0.27,3.28-1.9V39.64C61.72,38.89,61.35,38.21,60.69,37.8z
			"/>
	</g>
	<circle fill="#E6E6E6" cx="63.99" cy="12.26" r="9.76"/>
	<circle fill="#E6E6E6" cx="95.8" cy="115.74" r="9.76"/>
	<circle fill="#E6E6E6" cx="63.99" cy="115.74" r="9.76"/>
	<circle fill="#E6E6E6" cx="31.76" cy="115.74" r="9.76"/>
</g>
<g id="LogoCover">
</g>
</svg>
