<?xml version="1.0" encoding="utf-8"?>
<!-- Generator: Adobe Illustrator 23.0.0, SVG Export Plug-In . SVG Version: 6.00 Build 0)  -->
<svg version="1.1" xmlns="http://www.w3.org/2000/svg" xmlns:xlink="http://www.w3.org/1999/xlink" x="0px" y="0px"
	 viewBox="0 0 1366 360" enable-background="new 0 0 1366 360" xml:space="preserve">
<g id="Layer_1">
</g>
<g id="Layer_2">
	<g>
		<g>
			<path fill="#E6E6E6" d="M342.72,94.71c-18.26,1.04-54.57,4.81-76.98,18.53c-1.55,0.95-2.42,2.63-2.42,4.39v121.27
				c0,3.85,4.21,6.28,7.76,4.5c23.06-11.61,56.4-14.77,72.89-15.64c5.63-0.3,10.01-4.81,10.01-10.22v-112.6
				C353.98,99.03,348.86,94.36,342.72,94.71z M250.23,113.23c-22.41-13.72-58.71-17.49-76.97-18.53
				c-6.14-0.35-11.26,4.33-11.26,10.23v112.6c0,5.41,4.38,9.93,10.01,10.22c16.49,0.87,49.86,4.04,72.91,15.65
				c3.54,1.78,7.74-0.65,7.74-4.49V117.56C252.65,115.8,251.78,114.18,250.23,113.23z"/>
		</g>
	</g>
	<circle fill="#E6E6E6" cx="258" cy="53" r="23"/>
	<circle fill="#E6E6E6" cx="333" cy="297" r="23"/>
	<circle fill="#E6E6E6" cx="258" cy="297" r="23"/>
	<circle fill="#E6E6E6" cx="182" cy="297" r="23"/>
	<text transform="matrix(1 0 0 1 407.9316 223.7305)"><tspan x="0" y="0" fill="#E6E6E6" font-family="'RobotoSlab-Regular'" font-size="237.1874px">ap</tspan><tspan x="274.25" y="0" fill="#E6E6E6" font-family="'RobotoSlab-Regular'" font-size="237.1874px">ydox</tspan></text>
</g>
<g id="Network">
</g>
<g id="LogoDark">
</g>
</svg>
