<?xml version="1.0" encoding="utf-8"?>
<!-- Generator: Adobe Illustrator 23.0.0, SVG Export Plug-In . SVG Version: 6.00 Build 0)  -->
<svg version="1.1" xmlns="http://www.w3.org/2000/svg" xmlns:xlink="http://www.w3.org/1999/xlink" x="0px" y="0px"
	 viewBox="0 0 1366 360" enable-background="new 0 0 1366 360" xml:space="preserve">
<g id="Layer_1">
</g>
<g id="Layer_2">
	<g>
		<g>
			<path fill="#E6E6E6" d="M342.72,94.71c-18.26,1.04-54.57,4.81-76.98,18.53c-1.55,0.95-2.42,2.63-2.42,4.39v121.27
				c0,3.85,4.21,6.28,7.76,4.5c23.06-11.61,56.4-14.77,72.89-15.64c5.63-0.3,10.01-4.81,10.01-10.22v-112.6
				C353.98,99.03,348.86,94.36,342.72,94.71z M250.23,113.23c-22.41-13.72-58.71-17.49-76.97-18.53
				c-6.14-0.35-11.26,4.33-11.26,10.23v112.6c0,5.41,4.38,9.93,10.01,10.22c16.49,0.87,49.86,4.04,72.91,15.65
				c3.54,1.78,7.74-0.65,7.74-4.49V117.56C252.65,115.8,251.78,114.18,250.23,113.23z"/>
		</g>
	</g>
	<circle fill="#E6E6E6" cx="258" cy="53" r="23"/>
	<circle fill="#E6E6E6" cx="333" cy="297" r="23"/>
	<circle fill="#E6E6E6" cx="258" cy="297" r="23"/>
	<circle fill="#E6E6E6" cx="182" cy="297" r="23"/>
	<g>
		<path fill="#E6E6E6" d="M500,223.73c-0.69-3.4-1.24-6.45-1.62-9.15c-0.39-2.7-0.66-5.4-0.81-8.11c-4.4,5.64-9.9,10.33-16.5,14.07
			c-6.6,3.74-13.65,5.62-21.14,5.62c-13.05,0-22.97-3.19-29.76-9.55c-6.79-6.37-10.19-15.35-10.19-26.93
			c0-11.89,4.81-21.06,14.42-27.51c9.61-6.45,22.8-9.67,39.55-9.67h23.51v-14.59c0-7.33-2.32-13.15-6.95-17.43
			c-4.63-4.28-11.08-6.43-19.34-6.43c-5.71,0-10.75,0.73-15.11,2.2c-4.36,1.47-7.9,3.47-10.6,6.02l-2.43,13.2h-17.6v-24.32
			c5.71-4.55,12.62-8.2,20.73-10.94c8.11-2.74,16.91-4.11,26.41-4.11c14.21,0,25.71,3.63,34.51,10.89
			c8.8,7.26,13.2,17.64,13.2,31.15v60.34c0,1.62,0.02,3.21,0.06,4.75c0.04,1.55,0.13,3.09,0.29,4.63l9.27,1.27v14.59H500z
			 M463.29,207.05c7.57,0,14.48-1.81,20.73-5.44c6.25-3.63,10.73-7.99,13.43-13.09v-20.61h-24.32c-9.34,0-16.73,2.16-22.18,6.49
			c-5.44,4.33-8.17,9.57-8.17,15.75c0,5.48,1.7,9.67,5.1,12.57C451.28,205.61,456.42,207.05,463.29,207.05z"/>
		<path fill="#E6E6E6" d="M546.1,257.2l18.88-3.24V116.37l-18.88-3.24V98.42h38.45l2.08,15.29c4.17-5.71,9.24-10.08,15.23-13.09
			s12.91-4.52,20.79-4.52c15.52,0,27.58,6.16,36.19,18.47c8.61,12.32,12.91,28.59,12.91,48.82v2.43c0,18.07-4.32,32.64-12.97,43.72
			c-8.65,11.08-20.58,16.62-35.79,16.62c-7.72,0-14.5-1.29-20.32-3.88c-5.83-2.59-10.79-6.43-14.88-11.52v43.2l18.88,3.24v14.71
			H546.1V257.2z M648.82,163.39c0-14.28-2.78-25.98-8.34-35.09c-5.56-9.11-13.82-13.67-24.79-13.67c-6.48,0-12.04,1.47-16.68,4.4
			c-4.63,2.94-8.38,6.95-11.23,12.04v61.03c2.86,5.17,6.58,9.17,11.18,11.99c4.59,2.82,10.25,4.23,16.97,4.23
			c10.81,0,18.99-3.94,24.55-11.81s8.34-18.1,8.34-30.69V163.39z"/>
		<path fill="#E6E6E6" d="M810.27,113.13l-11.23,1.74l-47.72,128.09c-3.17,8.41-7.72,15.75-13.67,22
			c-5.95,6.25-13.94,9.38-23.97,9.38c-1.78,0-4.09-0.21-6.95-0.64c-2.86-0.43-5.06-0.83-6.6-1.22l2.32-17.95
			c-0.46-0.08,0.91,0,4.11,0.23c3.2,0.23,5.23,0.35,6.08,0.35c4.86,0,8.8-2.1,11.81-6.31c3.01-4.21,5.64-9.05,7.88-14.53l5.44-12.97
			l-41.35-106.32l-11.47-1.85V98.42h50.61v14.71l-14.13,2.32l21.66,61.84l4.17,15.98h0.7l26.06-77.83l-14.25-2.32V98.42h50.5V113.13
			z"/>
		<path fill="#E6E6E6" d="M908.71,208.79c-4.09,5.71-9.09,10.04-15,12.97c-5.91,2.93-12.76,4.4-20.56,4.4
			c-15.29,0-27.24-5.54-35.84-16.62c-8.61-11.08-12.91-25.65-12.91-43.72v-2.43c0-20.15,4.3-36.4,12.91-48.76
			c8.61-12.35,20.63-18.53,36.08-18.53c7.41,0,13.96,1.37,19.63,4.11c5.67,2.74,10.52,6.7,14.54,11.87V61.01l-18.88-3.24V43.06
			h18.88h22.82V205.9l18.88,3.24v14.59h-38.68L908.71,208.79z M847.21,165.82c0,12.59,2.59,22.7,7.76,30.34
			c5.17,7.64,13.16,11.47,23.97,11.47c6.79,0,12.51-1.54,17.14-4.63c4.63-3.09,8.45-7.45,11.47-13.09v-58.14
			c-2.94-5.25-6.76-9.42-11.47-12.51c-4.71-3.09-10.35-4.63-16.91-4.63c-10.89,0-18.94,4.52-24.15,13.55
			c-5.21,9.03-7.82,20.77-7.82,35.21V165.82z"/>
		<path fill="#E6E6E6" d="M966.74,159.92c0-18.53,5.02-33.8,15.06-45.8c10.04-12,23.66-18.01,40.88-18.01
			c17.29,0,30.98,5.98,41.06,17.95c10.08,11.97,15.11,27.26,15.11,45.86v2.55c0,18.69-5.02,33.97-15.06,45.86
			c-10.04,11.89-23.67,17.84-40.88,17.84c-17.37,0-31.08-5.96-41.11-17.89c-10.04-11.93-15.06-27.2-15.06-45.8V159.92z
			 M989.55,162.46c0,13.28,2.8,24.25,8.4,32.89c5.6,8.65,13.92,12.97,24.96,12.97c10.81,0,19.03-4.32,24.67-12.97
			c5.63-8.65,8.45-19.61,8.45-32.89v-2.55c0-13.12-2.82-24.05-8.45-32.78c-5.64-8.72-13.94-13.09-24.9-13.09
			c-10.96,0-19.22,4.36-24.78,13.09c-5.56,8.73-8.34,19.65-8.34,32.78V162.46z"/>
		<path fill="#E6E6E6" d="M1094.13,209.14l13.43-2.66l36.94-46.09l-35.79-44.59l-13.43-2.66V98.42h49.1v14.71l-11.35,1.39
			l23.39,30.11l23.51-30.23l-11.23-1.27V98.42h49.45v14.71l-13.43,2.66l-35.79,44.59l36.83,46.09l13.55,2.66v14.59h-49.11v-14.59
			l11.12-1.27l-24.55-31.5l-24.55,31.5l11.23,1.27v14.59h-49.34V209.14z"/>
	</g>
</g>
<g id="Network">
</g>
<g id="LogoDark">
</g>
<g id="LogoIcon">
</g>
</svg>
